<svg xmlns="http://www.w3.org/2000/svg" viewBox="0 0 64 64">
  <!-- Trophy case -->
  <rect x="8" y="12" width="48" height="44" fill="#2a2a2a" stroke="#C0C0C0" stroke-width="2"/>
  <!-- Shelves -->
  <rect x="8" y="30" width="48" height="2" fill="#C0C0C0"/>
  <rect x="8" y="46" width="48" height="2" fill="#C0C0C0"/>
  <!-- Trophies (5) -->
  <path d="M16 28 L16 20 L14 20 L14 16 L22 16 L22 20 L20 20 L20 28 Z" fill="#C0C0C0"/>
  <path d="M30 28 L30 20 L28 20 L28 16 L36 16 L36 20 L34 20 L34 28 Z" fill="#C0C0C0"/>
  <path d="M44 28 L44 20 L42 20 L42 16 L50 16 L50 20 L48 20 L48 28 Z" fill="#C0C0C0"/>
  <path d="M22 44 L22 36 L20 36 L20 32 L28 32 L28 36 L26 36 L26 44 Z" fill="#C0C0C0"/>
  <path d="M38 44 L38 36 L36 36 L36 32 L44 32 L44 36 L42 36 L42 44 Z" fill="#C0C0C0"/>
</svg>
