<svg xmlns="http://www.w3.org/2000/svg" viewBox="0 0 64 64">
  <!-- Keyboard -->
  <rect x="8" y="36" width="48" height="20" rx="3" fill="#333" stroke="#C0C0C0" stroke-width="2"/>
  <!-- Keys (on fire) -->
  <rect x="12" y="40" width="6" height="5" rx="1" fill="#FF6B6B"/>
  <rect x="20" y="40" width="6" height="5" rx="1" fill="#FF8C00"/>
  <rect x="28" y="40" width="6" height="5" rx="1" fill="#FF6B6B"/>
  <rect x="36" y="40" width="6" height="5" rx="1" fill="#FF8C00"/>
  <rect x="44" y="40" width="6" height="5" rx="1" fill="#FF6B6B"/>
  <!-- Smoke -->
  <path d="M20 36 Q18 28 22 24 Q18 20 22 12" stroke="#C0C0C0" stroke-width="2" fill="none" opacity="0.7"/>
  <path d="M32 36 Q30 28 34 24 Q30 20 34 12" stroke="#C0C0C0" stroke-width="2" fill="none" opacity="0.7"/>
  <path d="M44 36 Q42 28 46 24 Q42 20 46 12" stroke="#C0C0C0" stroke-width="2" fill="none" opacity="0.7"/>
</svg>
